<?xml version="1.0" encoding="utf-8"?>
<svg xmlns="http://www.w3.org/2000/svg" xmlns:xlink="http://www.w3.org/1999/xlink" version="1.1" viewBox="0 0 144 144">
	<path fill="#F6DA77" d="M132,102.1c-0.2-48.7-41.5-90-90.3-90.1L12,132L132,102.1z" />
	<path fill="#860D16" d="M116.5,106l4.1-0.7c-1.9-38.1-29.2-77.9-82.1-81.8l-0.7,4.1C78.5,32.6,111.4,65.4,116.5,106z" />
	<path fill="#C98E52" d="M120.5,105.3l11.5-2.9C132,53.5,90.5,12,41.4,12l-2.9,11.4C85.4,27.9,116.1,58.6,120.5,105.3z" />
	<g fill="#83BF4F">
		<path d="M34.4,91.3c-3.3,0-6.4-1.3-8.8-3.6c-1-1-1-2.5,0-3.5c0.9-0.9,2.6-0.9,3.5,0c2.8,2.8,7.8,2.8,10.6,0  c1.4-1.4,2.2-3.3,2.2-5.3c0-2-0.8-3.9-2.2-5.3c-1-1-1-2.5,0-3.5c0.9-0.9,2.6-0.9,3.5,0c2.3,2.3,3.6,5.5,3.6,8.8  c0,3.3-1.3,6.4-3.6,8.8C40.9,90,37.7,91.3,34.4,91.3z" />
		<path d="M84.6,51.8c0.1,0.3,0.1,0.7,0,1c-0.1,0.6-0.5,1.1-1,1.4c-0.5,0.3-1.1,0.4-1.7,0.3c-1.6-0.4-3.2-0.1-4.6,0.8  c-1.4,0.9-2.4,2.2-2.7,3.8c-0.8,3.2,1.4,6.6,4.6,7.3c1.2,0.3,1.9,1.5,1.7,2.7c-0.3,1.2-1.5,1.9-2.7,1.7c-4-0.9-7.1-4.1-8-8  c-0.3-1.5-0.3-3.1,0-4.7c0.6-2.8,2.3-5.1,4.7-6.6c2.4-1.5,5.3-2,8-1.3C83.8,50.3,84.4,51,84.6,51.8z" />
		<path d="M95.3,109.8c-0.3,0.1-0.6,0-0.9,0c-0.5-0.1-1-0.5-1.3-1c-0.3-0.5-0.4-1.1-0.2-1.6c0.4-1.5,0.2-3-0.6-4.4  c-0.8-1.3-2-2.3-3.5-2.7c-3-0.8-6.3,1.1-7.1,4.1c-0.3,1.1-1.5,1.8-2.6,1.5c-1.1-0.3-1.8-1.5-1.5-2.6c1-3.7,4.1-6.5,7.9-7.2  c1.5-0.3,3-0.2,4.4,0.2c2.6,0.7,4.7,2.4,6.1,4.7c1.3,2.3,1.7,5,1,7.6C96.8,109,96.1,109.6,95.3,109.8z" />
	</g>
	<g fill="#B21725">
		<path d="M81.7,80.4c2.8,8.2-1.7,17.1-10,19.8c-8.3,2.8-17.3-1.7-20.1-9.9c-2.8-8.2,1.7-17.1,10-19.8  C69.9,67.8,78.9,72.2,81.7,80.4z" />
		<path d="M106.6,81.9c1.7,4.9-1,10.3-6,11.9c-5,1.6-10.4-1-12.1-5.9c-1.7-4.9,1-10.3,6-11.9  C99.5,74.4,104.9,77,106.6,81.9z" />
		<path d="M65.5,46c2.3,6.7-1.4,14-8.2,16.2c-6.8,2.3-14.2-1.4-16.4-8.1c-2.3-6.7,1.4-14,8.2-16.2  C55.9,35.7,63.2,39.3,65.5,46z" />
		<path d="M76.2,116l-19.4,4.8c-1.7-5.1,1.8-11.4,7.1-12.7C70.3,106.5,74.5,110.9,76.2,116z" />
		<path d="M46.7,102.1c2.3,6.9-1.4,14.4-8.4,16.7c-7,2.3-14.6-1.4-16.9-8.3c-2.3-6.9,1.4-14.4,8.4-16.7  C36.7,91.4,44.3,95.2,46.7,102.1z" />
	</g>
	<path fill="#E0A763" d="M38.5,23.4c10.6,0.2,21.3,2.2,31.3,6.1c10,3.9,19.3,9.9,27,17.5c7.7,7.7,13.7,16.9,17.6,27  c4,10,6,20.7,6.2,31.3c-1.8-10.4-4.7-20.6-9-30c-4.4-9.4-10.2-18.1-17.6-25.4c-7.3-7.3-16-13.1-25.4-17.5  C59.1,28.1,49,25.3,38.5,23.4z" />
</svg>